<?xml version="1.0" encoding="UTF-8"?>
<svg id="Capa_1" xmlns="http://www.w3.org/2000/svg" version="1.1" viewBox="0 0 448 476">
  <!-- Generator: Adobe Illustrator 29.5.0, SVG Export Plug-In . SVG Version: 2.1.0 Build 137)  -->
  <defs>
    <style>
      .st0 {
        stroke-width: 1.25px;
      }

      .st0, .st1 {
        fill: none;
        stroke: #79736d;
      }
    </style>
  </defs>
  <path class="st1" d="M356.65,212.45l-.6,106.55"/>
  <path class="st1" d="M348.24,333.62l-161.29,55.51"/>
  <path d="M369.73,269.65h-1.25v-3.22h-3.25v3.22h-1.25v-7.14h1.25v2.84h3.25v-2.84h1.25v7.14Z"/>
  <path d="M107.97,337.98h1.25v6.06h3.63v1.08h-4.88v-7.14h0Z"/>
  <path d="M278.05,368.23h1.27l1.29,5.46h.02l1.44-5.46h1.28l1.4,5.46h.02l1.33-5.46h1.27l-1.97,7.14h-1.27l-1.43-5.46h-.02l-1.46,5.46h-1.29l-1.88-7.14h0Z"/>
  <path class="st1" d="M178.64,389.13l-100.37-104.73"/>
  <path class="st0" d="M183.21,375.38l162.29-54.82v-108.2M183.21,248.43l162.29-36.07M218.11,161.96l127.4,50.41M211.34,109.94l134.16,102.43M183.21,248.43v126.95M85.11,182.07v92.33l98.1,100.98M85.11,182.07l98.1,66.36M85.11,182.07l132.99-20.11M192.43,144.31l25.67,17.64M192.43,144.31l-3.45,6.02-97.38-34.62,14.43-28.85,105.31,23.08M192.43,144.31l18.91-34.37"/>
  <path class="st0" d="M89.86,181.12l34.83,23.57,139.91-24.46M187.96,247.07l-50.89-34.62,142.47-26.07"/>
</svg>