<svg width="439" height="365" viewBox="0 0 439 365" fill="none" xmlns="http://www.w3.org/2000/svg">
<path d="M322 283V21" stroke="#79736D"/>
<path d="M277 317H97" stroke="#79736D"/>
<path d="M282 317L319.5 291.5" stroke="#79736D"/>
<path d="M326.73 163.86H327.98V166.7H331.23V163.86H332.48V171H331.23V167.78H327.98V171H326.73V163.86Z" fill="black"/>
<path d="M306.06 305.86H307.33L308.62 311.32H308.64L310.08 305.86H311.36L312.76 311.32H312.78L314.11 305.86H315.38L313.41 313H312.14L310.71 307.54H310.69L309.23 313H307.94L306.06 305.86Z" fill="black"/>
<path d="M179.836 329.146H181.211V335.812H185.204V337H179.836V329.146Z" fill="black"/>
<path d="M277 304.5L277 43.0001M277 304.5L310 283L310 21.5001M277 304.5L97.5 304.5L97.5001 43.0001M277 43.0001L310 21.5001M277 43.0001L97.5001 43.0001M310 21.5001L130 21.5001L97.5001 43.0001" stroke="#79736D"/>
</svg>
